<svg id="svg" width="1008" xmlns="http://www.w3.org/2000/svg" height="450" style="max-width: 1008px;" viewBox="0 0 1008 450"><style>#svg {font-family:"trebuchet ms",verdana,arial,sans-serif;font-size:16px;fill:#333;}#svg .error-icon{fill:#552222;}#svg .error-text{fill:#552222;stroke:#552222;}#svg .edge-thickness-normal{stroke-width:2px;}#svg .edge-thickness-thick{stroke-width:3.5px;}#svg .edge-pattern-solid{stroke-dasharray:0;}#svg .edge-pattern-dashed{stroke-dasharray:3;}#svg .edge-pattern-dotted{stroke-dasharray:2;}#svg .marker{fill:#333333;stroke:#333333;}#svg .marker.cross{stroke:#333333;}#svg svg{font-family:"trebuchet ms",verdana,arial,sans-serif;font-size:16px;}#svg .pieCircle{stroke:black;stroke-width:2px;opacity:0.7;}#svg .pieTitleText{text-anchor:middle;font-size:25px;fill:black;font-family:"trebuchet ms",verdana,arial,sans-serif;}#svg .slice{font-family:"trebuchet ms",verdana,arial,sans-serif;fill:#333;font-size:17px;}#svg .legend text{fill:black;font-family:"trebuchet ms",verdana,arial,sans-serif;font-size:17px;}#svg .today{display:none;}#svg .label foreignObject{overflow:visible;}#svg :root{--mermaid-font-family:"trebuchet ms",verdana,arial,sans-serif;}</style><g></g><g transform="translate(504,225)"><path d="M1.1327982892113017e-14,-185A185,185,0,0,1,173.50657820506459,64.19086632512298L0,0Z" fill="#ECECFF" class="pieCircle"></path><path d="M173.50657820506459,64.19086632512298A185,185,0,0,1,-46.4645539907855,179.06994505621924L0,0Z" fill="#ffffde" class="pieCircle"></path><path d="M-46.4645539907855,179.06994505621924A185,185,0,0,1,-183.51149805312005,-23.420719081610603L0,0Z" fill="hsl(80, 100%, 56.2745098039%)" class="pieCircle"></path><path d="M-183.51149805312005,-23.420719081610603A185,185,0,0,1,-85.64005874380126,-163.98408562527726L0,0Z" fill="hsl(240, 100%, 86.2745098039%)" class="pieCircle"></path><path d="M-85.64005874380126,-163.98408562527726A185,185,0,0,1,-3.398394867633905e-14,-185L0,0Z" fill="hsl(60, 100%, 63.5294117647%)" class="pieCircle"></path><text transform="translate(75.91138770809337,-52.855569396531244)" class="slice" style="text-anchor: middle;">31%</text><text transform="translate(42.820029371900624,81.99204281263863)" class="slice" style="text-anchor: middle;">23%</text><text transform="translate(-76.6042808760877,51.846254941485064)" class="slice" style="text-anchor: middle;">23%</text><text transform="translate(-75.91138770809341,-52.855569396531195)" class="slice" style="text-anchor: middle;">15%</text><text transform="translate(-22.045249372948025,-89.83460903284733)" class="slice" style="text-anchor: middle;">8%</text><text x="0" y="-200" class="pieTitleText">Fruit</text><g class="legend" transform="translate(216,-55)"><rect width="18" height="18" style="fill: rgb(236, 236, 255); stroke: rgb(236, 236, 255);"></rect><text x="22" y="14">Apple</text></g><g class="legend" transform="translate(216,-33)"><rect width="18" height="18" style="fill: rgb(255, 255, 222); stroke: rgb(255, 255, 222);"></rect><text x="22" y="14">Orange</text></g><g class="legend" transform="translate(216,-11)"><rect width="18" height="18" style="fill: rgb(181, 255, 32); stroke: rgb(181, 255, 32);"></rect><text x="22" y="14">Banana</text></g><g class="legend" transform="translate(216,11)"><rect width="18" height="18" style="fill: rgb(185, 185, 255); stroke: rgb(185, 185, 255);"></rect><text x="22" y="14">Peach</text></g><g class="legend" transform="translate(216,33)"><rect width="18" height="18" style="fill: rgb(255, 255, 69); stroke: rgb(255, 255, 69);"></rect><text x="22" y="14">Pear</text></g></g></svg>